<svg width="118" height="44" viewBox="0 0 118 44" fill="none" xmlns="http://www.w3.org/2000/svg">
<path d="M1.7952 2.01051C0.696437 2.12362 -0.102595 3.10604 0.0105134 4.2048C0.123621 5.30356 1.10604 6.10259 2.2048 5.98949L1.7952 2.01051ZM116.033 43.4997C117.138 43.4814 118.018 42.5713 118 41.4669L117.701 23.4693C117.683 22.3649 116.773 21.4844 115.669 21.5027C114.564 21.5211 113.684 22.4312 113.702 23.5356L113.967 39.5334L97.9693 39.7986C96.8649 39.8169 95.9844 40.727 96.0027 41.8314C96.0211 42.9359 96.9312 43.8163 98.0356 43.798L116.033 43.4997ZM7.01926 3.48331L7.22406 5.4728L7.01926 3.48331ZM2.2048 5.98949L7.22406 5.4728L6.81446 1.49383L1.7952 2.01051L2.2048 5.98949ZM114.115 42.4588L114.609 42.9375L117.391 40.0625L116.896 39.5839L114.115 42.4588ZM7.22406 5.4728C46.5666 1.42283 85.6887 14.9598 114.115 42.4588L116.896 39.5839C87.6213 11.264 47.3314 -2.67703 6.81446 1.49383L7.22406 5.4728Z" fill="#367FF5"/>
</svg>
